<svg xmlns="http://www.w3.org/2000/svg" width="683" height="683" viewBox="-47 0 512 512"><path fill="#ffd664" d="M404 115c0-9-6-17-14-20V8a8 8 0 0 0-15 0v87a22 22 0 0 0 0 40v24a8 8 0 0 0 15 0v-24c8-3 14-11 14-20zm0 0"/><path fill="#f9c646" d="M393 97c2 3 3 6 3 10a22 22 0 0 1-32 19 21 21 0 1 0 29-29zm0 0"/><path fill="#636363" d="M398 0H21a8 8 0 1 0 0 15h65v98h246V15h66a8 8 0 1 0 0-15zm0 0"/><path fill="#ddf5ff" d="M148 343l-88 24a82 82 0 0 0-60 79v56c0 6 4 10 10 10h398c6 0 10-4 10-10v-56c0-37-24-69-60-79l-87-24zm0 0"/><path fill="#ff6969" d="M229 417l12 61-32 34-32-34 13-61zm0 0"/><path fill="#ea4747" d="M241 478l-12-61h-20l16 78 16-17zm0 0"/><path fill="#636363" d="M418 446v56c0 6-4 10-10 10H209l61-64 30-97 58 16c36 10 60 42 60 79zm0 0"/><path fill="#494949" d="M358 367l-6-2c17 16 28 38 28 63v84h28c6 0 10-4 10-10v-56c0-37-24-69-60-79zm0 0"/><path fill="#636363" d="M60 367l58-16 31 97 60 64H10c-6 0-10-4-10-10v-56c0-37 25-69 60-79zm0 0"/><path fill="#f9b3a7" d="M246 317l-37 37-37-37v-58h74zm0 0"/><path fill="#ffd664" d="M305 113h27v41h-27zm0 0"/><path fill="#494949" d="M313 8v64c0 12-10 21-21 21H86v20h246V8zm0 0"/><path fill="#ffd664" d="M86 113h27v41H86zm0 0"/><path fill="#feccc1" d="M209 113h-96v34H97c-11 0-20 9-20 21v14c0 11 9 20 20 20h17a96 96 0 0 0 191-15v-74zm0 0"/><path fill="#f9b3a7" d="M321 147h-16v-34h-28v74c0 48-36 88-82 95l14 1c48 0 88-35 95-81h17c11 0 20-9 20-20v-14c0-12-9-21-20-21zm0 0"/><path fill="#ff6969" d="M209 417h20l20-23-40-40-39 40 20 23zm0 0"/><path fill="#ea4747" d="M209 354l-12 12 21 21c4 4 4 10 0 14l-14 16h25l20-23zm0 0"/><path fill="#c1e9f4" d="M170 394l39-40-37-37-25 26zm0 0M249 394l-40-40 37-37 25 26zm0 0"/><g fill="#494949"><path d="M348 480v32h-15v-32a8 8 0 0 1 15 0zm0 0M70 512v-32a8 8 0 0 1 16 0v32zm0 0"/></g></svg>