<svg xmlns="http://www.w3.org/2000/svg" width="683" height="683" viewBox="-30 0 512 512"><path fill="#20a5d3" d="M417 226c-4 0-8-4-8-8v-19a184 184 0 0 0-367 0v19a8 8 0 1 1-15 0v-19a199 199 0 0 1 398 0v19c0 4-4 8-8 8zm0 0M409 388h-20a8 8 0 1 1 0-16h20c5 0 9-4 9-9v-42a8 8 0 1 1 16 0v42c0 13-12 25-25 25zm0 0"/><path fill="#ccc" d="M171 392h108v93H171zm0 0"/><path fill="#e6e6e6" d="M387 358c2-6 3-12 3-19V206c0-43-35-78-79-78H140c-43 0-78 35-78 78v133c0 44 35 79 78 79h171c20 0 38-8 52-20"/><path fill="#ccc" d="M123 370v46c-35-8-61-39-61-77v-46c35 8 61 39 61 77zm0 0M390 293v46c0 7-1 13-3 19l-24 40c-10 9-21 15-34 18v-46c0-38 26-69 61-77zm0 0"/><path fill="#fff" d="M203 246a50 50 0 1 1-100 0 50 50 0 0 1 100 0zm0 0M349 246a50 50 0 1 1-101 0 50 50 0 0 1 101 0zm0 0"/><path fill="#42444c" d="M153 265a19 19 0 1 1 0-38 19 19 0 0 1 0 38zm0 0M299 265a19 19 0 1 1 0-38 19 19 0 0 1 0 38zm0 0"/><g fill="#ff4a4a"><path d="M196 336h22v82h-22zm0 0M234 336h22v82h-22zm0 0M271 337v81h23v-52c0-14-10-26-23-29zm0 0M180 337c-13 3-22 15-22 29v52h22zm0 0"/></g><path fill="#e53333" d="M62 233v78a26 26 0 0 1-26 26H26c-14 0-26-12-26-26v-78c0-14 12-26 26-26h10l7 1c11 4 19 14 19 25zm0 0"/><path fill="#ff4a4a" d="M62 233v78c0 12-8 22-19 25-11-3-19-13-19-25v-78c0-11 8-21 19-25 11 4 19 14 19 25zm0 0"/><path fill="#e53333" d="M452 233v78a26 26 0 0 1-26 26h-10c-15 0-26-12-26-26v-78c0-14 11-26 26-26h10l7 1c11 4 19 14 19 25zm0 0"/><path fill="#ff4a4a" d="M452 233v78c0 12-8 22-19 25-11-3-19-13-19-25v-78c0-11 8-21 19-25 11 4 19 14 19 25zm0 0"/><path fill="#42444c" d="M375 358h7a22 22 0 0 1 0 44h-7a22 22 0 1 1 0-44zm0 0"/><path fill="#ccc" d="M383 510v2H67v-2c0-27 23-50 51-50h214c28 0 51 23 51 50zm0 0"/><path fill="#e6e6e6" d="M383 510v2H126v-2c0-27 22-50 50-50h156c28 0 51 23 51 50zm0 0"/></svg>